<?xml version="1.0" encoding="UTF-8" standalone="no"?>
<!-- Created with Inkscape (http://www.inkscape.org/) -->

<svg
   xmlns:ns1="http://www.iki.fi/pav/software/textext/"
   xmlns:dc="http://purl.org/dc/elements/1.1/"
   xmlns:cc="http://creativecommons.org/ns#"
   xmlns:rdf="http://www.w3.org/1999/02/22-rdf-syntax-ns#"
   xmlns:svg="http://www.w3.org/2000/svg"
   xmlns="http://www.w3.org/2000/svg"
   xmlns:sodipodi="http://sodipodi.sourceforge.net/DTD/sodipodi-0.dtd"
   xmlns:inkscape="http://www.inkscape.org/namespaces/inkscape"
   width="59.698662mm"
   height="72.942886mm"
   viewBox="0 0 211.53069 258.45904"
   id="svg6041"
   version="1.1"
   inkscape:version="0.91 r13725"
   sodipodi:docname="hw2_key_fig2.svg"
   inkscape:export-filename="/home/thill/Dropbox/teaching_local/me3050/homeworks/hw2/hw2_key_fig2.png"
   inkscape:export-xdpi="90"
   inkscape:export-ydpi="90">
  <sodipodi:namedview
     id="base"
     pagecolor="#ffffff"
     bordercolor="#666666"
     borderopacity="1.0"
     inkscape:pageopacity="0.0"
     inkscape:pageshadow="2"
     inkscape:zoom="0.98994949"
     inkscape:cx="274.57483"
     inkscape:cy="144.13183"
     inkscape:document-units="px"
     inkscape:current-layer="layer1"
     showgrid="false"
     inkscape:window-width="1535"
     inkscape:window-height="876"
     inkscape:window-x="65"
     inkscape:window-y="24"
     inkscape:window-maximized="1"
     fit-margin-top="0"
     fit-margin-left="0"
     fit-margin-right="0"
     fit-margin-bottom="0" />
  <defs
     id="defs6043">
    <marker
       inkscape:isstock="true"
       style="overflow:visible"
       id="marker4680-0-9"
       refX="0"
       refY="0"
       orient="auto"
       inkscape:stockid="Arrow1Mend">
      <path
         inkscape:connector-curvature="0"
         transform="matrix(-0.4,0,0,-0.4,-4,0)"
         style="fill:#0000ff;fill-opacity:1;fill-rule:evenodd;stroke:#0000ff;stroke-width:1pt;stroke-opacity:1"
         d="M 0,0 5,-5 -12.5,0 5,5 0,0 Z"
         id="path4682-9-3" />
    </marker>
    <marker
       inkscape:isstock="true"
       style="overflow:visible"
       id="marker4680-0-9-1-7"
       refX="0"
       refY="0"
       orient="auto"
       inkscape:stockid="Arrow1Mend">
      <path
         inkscape:connector-curvature="0"
         transform="matrix(-0.4,0,0,-0.4,-4,0)"
         style="fill:#0000ff;fill-opacity:1;fill-rule:evenodd;stroke:#0000ff;stroke-width:1pt;stroke-opacity:1"
         d="M 0,0 5,-5 -12.5,0 5,5 0,0 Z"
         id="path4682-9-3-7-2" />
    </marker>
    <marker
       inkscape:isstock="true"
       style="overflow:visible"
       id="marker4680-0-9-1"
       refX="0"
       refY="0"
       orient="auto"
       inkscape:stockid="Arrow1Mend">
      <path
         inkscape:connector-curvature="0"
         transform="matrix(-0.4,0,0,-0.4,-4,0)"
         style="fill:#0000ff;fill-opacity:1;fill-rule:evenodd;stroke:#0000ff;stroke-width:1pt;stroke-opacity:1"
         d="M 0,0 5,-5 -12.5,0 5,5 0,0 Z"
         id="path4682-9-3-7" />
    </marker>
  </defs>
  <metadata
     id="metadata6046">
    <rdf:RDF>
      <cc:Work
         rdf:about="">
        <dc:format>image/svg+xml</dc:format>
        <dc:type
           rdf:resource="http://purl.org/dc/dcmitype/StillImage" />
        <dc:title></dc:title>
      </cc:Work>
    </rdf:RDF>
  </metadata>
  <g
     inkscape:label="Layer 1"
     inkscape:groupmode="layer"
     id="layer1"
     transform="translate(-95.815193,-225.54594)">
    <path
       inkscape:connector-curvature="0"
       id="path4367-7-3-7"
       d="m 135.05597,228.10262 0,217.64719"
       style="fill:#0000ff;fill-rule:evenodd;stroke:#0000ff;stroke-width:5;stroke-linecap:butt;stroke-linejoin:miter;stroke-miterlimit:4;stroke-dasharray:none;stroke-opacity:1;marker-end:url(#marker4680-0-9)" />
    <path
       inkscape:connector-curvature="0"
       id="path4367-7-3-7-2"
       d="m 140.74744,225.94988 60.57163,216.62051"
       style="fill:#0000ff;fill-rule:evenodd;stroke:#0000ff;stroke-width:3;stroke-linecap:butt;stroke-linejoin:miter;stroke-miterlimit:4;stroke-dasharray:none;stroke-opacity:1;marker-end:url(#marker4680-0-9-1)"
       sodipodi:nodetypes="cc" />
    <path
       inkscape:connector-curvature="0"
       id="path4367-7-3-7-2-2"
       d="m 202.24247,443.65599 -60.54306,19.91885"
       style="fill:#0000ff;fill-rule:evenodd;stroke:#0000ff;stroke-width:3;stroke-linecap:butt;stroke-linejoin:miter;stroke-miterlimit:4;stroke-dasharray:none;stroke-opacity:1;marker-end:url(#marker4680-0-9-1-7)"
       sodipodi:nodetypes="cc" />
    <path
       style="fill:none;fill-rule:evenodd;stroke:#0000ff;stroke-width:1px;stroke-linecap:butt;stroke-linejoin:miter;stroke-opacity:1"
       d="m 138.89598,329.59806 c 13.91191,3.81039 19.70925,-0.49379 25.75888,-4.54569"
       id="path7219"
       inkscape:connector-curvature="0"
       sodipodi:nodetypes="cc" />
    <g
       transform="matrix(2.5,0,0,2.5,-5.924162,197.92095)"
       ns1:version="0.8.1"
       ns1:texconverter="pdflatex"
       ns1:pdfconverter="pdf2svg"
       ns1:text="$\\theta$"
       ns1:preamble="/home/thill/.config/inkscape/extensions/default_packages.tex"
       ns1:scale="2.00000008505"
       ns1:alignment="middle center"
       inkscapeversion="0.91"
       ns1:jacobian_sqrt="2.5"
       id="g7270">
      <g
         id="g7272">
        <g
           style="fill:#000000;fill-opacity:1"
           id="g7274">
          <path
             inkscape:connector-curvature="0"
             style="fill:#0000ff;stroke:none;stroke-width:0"
             d="m 65.562009,58.261825 c 0,-0.65625 -0.171875,-2.046875 -1.1875,-2.046875 -1.390625,0 -2.921875,2.8125 -2.921875,5.09375 0,0.9375 0.28125,2.046875 1.1875,2.046875 1.40625,0 2.921875,-2.859375 2.921875,-5.09375 z m -3.0625,1.359375 c 0.171875,-0.625 0.375,-1.421875 0.78125,-2.140625 0.265625,-0.484375 0.625,-1.046875 1.078125,-1.046875 0.484375,0 0.546875,0.640625 0.546875,1.203125 0,0.5 -0.07813,1 -0.3125,1.984375 z m 2,0.328125 c -0.109375,0.453125 -0.3125,1.296875 -0.703125,2.015625 -0.34375,0.6875 -0.71875,1.171875 -1.15625,1.171875 -0.328125,0 -0.53125,-0.296875 -0.53125,-1.21875 0,-0.421875 0.0625,-1 0.3125,-1.96875 z m 0,0"
             id="path7276" />
        </g>
      </g>
    </g>
    <g
       id="g7367"
       style="fill:#0000ff;stroke:#0000ff"
       ns1:jacobian_sqrt="2.500002"
       inkscapeversion="0.91"
       ns1:alignment="middle center"
       ns1:scale="7.08661434511"
       ns1:preamble="/home/thill/.config/inkscape/extensions/default_packages.tex"
       ns1:text="$w$"
       ns1:pdfconverter="pdf2svg"
       ns1:texconverter="pdflatex"
       ns1:version="0.8.1"
       transform="matrix(2.500002,0,0,2.500002,-276.70728,62.732111)">
      <g
         style="fill:#0000ff;stroke:#0000ff"
         id="surface1">
        <g
           id="g7370"
           style="fill:#0000ff;fill-opacity:1;stroke:#0000ff">
          <path
             id="path7372"
             transform="translate(148.712,134.765)"
             d="M 4.609375,-3.375 C 4.65625,-3.59375 4.75,-3.96875 4.75,-4.03125 c 0,-0.171875 -0.140625,-0.265625 -0.28125,-0.265625 -0.125,0 -0.296875,0.078125 -0.375,0.28125 -0.03125,0.0625 -0.5,1.96875 -0.5625,2.234375 C 3.453125,-1.484375 3.4375,-1.3125 3.4375,-1.125 c 0,0.109375 0,0.125 0.015625,0.171875 -0.234375,0.53125 -0.53125,0.84375 -0.921875,0.84375 -0.796875,0 -0.796875,-0.734375 -0.796875,-0.90625 0,-0.3125 0.046875,-0.703125 0.515625,-1.9375 0.109375,-0.296875 0.171875,-0.4375 0.171875,-0.640625 0,-0.4375 -0.328125,-0.8125 -0.8125,-0.8125 -0.953125,0 -1.3125,1.453125 -1.3125,1.53125 0,0.109375 0.09375,0.109375 0.109375,0.109375 0.109375,0 0.109375,-0.03125 0.15625,-0.1875 C 0.84375,-3.875 1.21875,-4.1875 1.578125,-4.1875 c 0.09375,0 0.25,0.015625 0.25,0.328125 0,0.25 -0.109375,0.53125 -0.1875,0.703125 -0.4375,1.171875 -0.546875,1.625 -0.546875,2.015625 0,0.90625 0.65625,1.25 1.40625,1.25 0.171875,0 0.640625,0 1.03125,-0.703125 0.265625,0.640625 0.953125,0.703125 1.25,0.703125 0.75,0 1.1875,-0.625 1.453125,-1.21875 0.328125,-0.78125 0.65625,-2.125 0.65625,-2.59375 0,-0.546875 -0.265625,-0.703125 -0.4375,-0.703125 -0.25,0 -0.5,0.265625 -0.5,0.484375 0,0.125 0.0625,0.1875 0.140625,0.265625 0.109375,0.109375 0.359375,0.359375 0.359375,0.84375 0,0.34375 -0.28125,1.3125 -0.546875,1.828125 -0.25,0.53125 -0.609375,0.875 -1.09375,0.875 -0.46875,0 -0.734375,-0.296875 -0.734375,-0.875 0,-0.265625 0.0625,-0.578125 0.109375,-0.71875 z m 0,0"
             style="fill:#0000ff;stroke:#0000ff;stroke-width:0"
             inkscape:connector-curvature="0" />
        </g>
      </g>
    </g>
    <g
       transform="matrix(2.500002,0,0,2.500002,-177.16201,36.754695)"
       ns1:version="0.8.1"
       ns1:texconverter="pdflatex"
       ns1:pdfconverter="pdf2svg"
       ns1:text="$w\\times cos(\\theta)$"
       ns1:preamble="/home/thill/.config/inkscape/extensions/default_packages.tex"
       ns1:scale="7.08661444556"
       ns1:alignment="middle center"
       inkscapeversion="0.91"
       ns1:jacobian_sqrt="2.500002"
       style="fill:#0000ff;stroke:#0000ff"
       id="g7657">
      <g
         id="g7659"
         style="fill:#0000ff;stroke:#0000ff">
        <g
           style="fill:#0000ff;fill-opacity:1;stroke:#0000ff"
           id="g7661">
          <path
             style="fill:#0000ff;stroke:#0000ff;stroke-width:0"
             d="M 4.609375,-3.375 C 4.65625,-3.59375 4.75,-3.96875 4.75,-4.03125 c 0,-0.171875 -0.140625,-0.265625 -0.28125,-0.265625 -0.125,0 -0.296875,0.078125 -0.375,0.28125 -0.03125,0.0625 -0.5,1.96875 -0.5625,2.234375 C 3.453125,-1.484375 3.4375,-1.3125 3.4375,-1.125 c 0,0.109375 0,0.125 0.015625,0.171875 -0.234375,0.53125 -0.53125,0.84375 -0.921875,0.84375 -0.796875,0 -0.796875,-0.734375 -0.796875,-0.90625 0,-0.3125 0.046875,-0.703125 0.515625,-1.9375 0.109375,-0.296875 0.171875,-0.4375 0.171875,-0.640625 0,-0.4375 -0.328125,-0.8125 -0.8125,-0.8125 -0.953125,0 -1.3125,1.453125 -1.3125,1.53125 0,0.109375 0.09375,0.109375 0.109375,0.109375 0.109375,0 0.109375,-0.03125 0.15625,-0.1875 C 0.84375,-3.875 1.21875,-4.1875 1.578125,-4.1875 c 0.09375,0 0.25,0.015625 0.25,0.328125 0,0.25 -0.109375,0.53125 -0.1875,0.703125 -0.4375,1.171875 -0.546875,1.625 -0.546875,2.015625 0,0.90625 0.65625,1.25 1.40625,1.25 0.171875,0 0.640625,0 1.03125,-0.703125 0.265625,0.640625 0.953125,0.703125 1.25,0.703125 0.75,0 1.1875,-0.625 1.453125,-1.21875 0.328125,-0.78125 0.65625,-2.125 0.65625,-2.59375 0,-0.546875 -0.265625,-0.703125 -0.4375,-0.703125 -0.25,0 -0.5,0.265625 -0.5,0.484375 0,0.125 0.0625,0.1875 0.140625,0.265625 0.109375,0.109375 0.359375,0.359375 0.359375,0.84375 0,0.34375 -0.28125,1.3125 -0.546875,1.828125 -0.25,0.53125 -0.609375,0.875 -1.09375,0.875 -0.46875,0 -0.734375,-0.296875 -0.734375,-0.875 0,-0.265625 0.0625,-0.578125 0.109375,-0.71875 z m 0,0"
             transform="translate(148.712,134.765)"
             id="path7663"
             inkscape:connector-curvature="0" />
        </g>
        <g
           style="fill:#0000ff;fill-opacity:1;stroke:#0000ff"
           id="g7665">
          <path
             style="fill:#0000ff;stroke:#0000ff;stroke-width:0"
             d="M 3.875,-2.765625 1.890625,-4.75 C 1.765625,-4.875 1.75,-4.890625 1.671875,-4.890625 1.5625,-4.890625 1.46875,-4.8125 1.46875,-4.6875 c 0,0.0625 0.015625,0.078125 0.125,0.1875 l 2,2 -2,2.015625 c -0.109375,0.109375 -0.125,0.125 -0.125,0.1875 0,0.125 0.09375,0.203125 0.203125,0.203125 0.078125,0 0.09375,-0.015625 0.21875,-0.140625 L 3.875,-2.21875 l 2.0625,2.0625 c 0.015625,0.015625 0.078125,0.0625 0.140625,0.0625 0.125,0 0.203125,-0.078125 0.203125,-0.203125 0,-0.015625 0,-0.046875 -0.03125,-0.109375 C 6.234375,-0.421875 4.65625,-1.984375 4.15625,-2.5 l 1.828125,-1.8125 c 0.046875,-0.0625 0.203125,-0.1875 0.25,-0.25 0,-0.015625 0.046875,-0.0625 0.046875,-0.125 0,-0.125 -0.078125,-0.203125 -0.203125,-0.203125 C 6,-4.890625 5.96875,-4.859375 5.859375,-4.75 Z m 0,0"
             transform="translate(158.327,134.765)"
             id="path7667"
             inkscape:connector-curvature="0" />
        </g>
        <g
           style="fill:#0000ff;fill-opacity:1;stroke:#0000ff"
           id="g7669">
          <path
             style="fill:#0000ff;stroke:#0000ff;stroke-width:0"
             d="m 3.953125,-3.78125 c -0.171875,0 -0.296875,0 -0.4375,0.125 -0.171875,0.15625 -0.1875,0.328125 -0.1875,0.390625 0,0.25 0.1875,0.359375 0.375,0.359375 0.28125,0 0.546875,-0.25 0.546875,-0.640625 0,-0.484375 -0.46875,-0.859375 -1.171875,-0.859375 -1.34375,0 -2.671875,1.421875 -2.671875,2.828125 0,0.90625 0.578125,1.6875 1.625,1.6875 1.421875,0 2.25,-1.0625 2.25,-1.171875 0,-0.0625 -0.046875,-0.140625 -0.109375,-0.140625 -0.0625,0 -0.078125,0.03125 -0.140625,0.109375 -0.78125,0.984375 -1.875,0.984375 -1.984375,0.984375 -0.625,0 -0.90625,-0.484375 -0.90625,-1.09375 0,-0.40625 0.203125,-1.375 0.546875,-1.984375 0.3125,-0.578125 0.859375,-1 1.40625,-1 0.328125,0 0.71875,0.125 0.859375,0.40625 z m 0,0"
             transform="translate(168.289,134.765)"
             id="path7671"
             inkscape:connector-curvature="0" />
          <path
             style="fill:#0000ff;stroke:#0000ff;stroke-width:0"
             d="m 4.671875,-2.71875 c 0,-1.046875 -0.6875,-1.6875 -1.59375,-1.6875 -1.328125,0 -2.671875,1.421875 -2.671875,2.828125 0,0.984375 0.671875,1.6875 1.59375,1.6875 1.328125,0 2.671875,-1.375 2.671875,-2.828125 z m -2.65625,2.609375 c -0.4375,0 -0.875,-0.3125 -0.875,-1.09375 0,-0.484375 0.265625,-1.5625 0.578125,-2.0625 0.5,-0.765625 1.078125,-0.921875 1.359375,-0.921875 0.578125,0 0.875,0.484375 0.875,1.078125 0,0.390625 -0.203125,1.4375 -0.578125,2.078125 -0.359375,0.578125 -0.90625,0.921875 -1.359375,0.921875 z m 0,0"
             transform="translate(172.60081,134.765)"
             id="path7673"
             inkscape:connector-curvature="0" />
          <path
             style="fill:#0000ff;stroke:#0000ff;stroke-width:0"
             d="M 3.890625,-3.734375 C 3.625,-3.71875 3.421875,-3.5 3.421875,-3.28125 c 0,0.140625 0.09375,0.296875 0.3125,0.296875 0.21875,0 0.453125,-0.171875 0.453125,-0.5625 C 4.1875,-4 3.765625,-4.40625 3,-4.40625 c -1.3125,0 -1.6875,1.015625 -1.6875,1.453125 0,0.78125 0.734375,0.921875 1.03125,0.984375 0.515625,0.109375 1.03125,0.21875 1.03125,0.765625 0,0.25 -0.21875,1.09375 -1.421875,1.09375 -0.140625,0 -0.90625,0 -1.140625,-0.53125 0.390625,0.046875 0.640625,-0.25 0.640625,-0.53125 0,-0.21875 -0.171875,-0.34375 -0.375,-0.34375 -0.265625,0 -0.5625,0.203125 -0.5625,0.65625 0,0.5625 0.578125,0.96875 1.421875,0.96875 1.625,0 2.015625,-1.203125 2.015625,-1.65625 0,-0.359375 -0.1875,-0.609375 -0.3125,-0.71875 -0.265625,-0.28125 -0.5625,-0.34375 -1,-0.421875 -0.359375,-0.078125 -0.75,-0.15625 -0.75,-0.609375 C 1.890625,-3.578125 2.125,-4.1875 3,-4.1875 c 0.25,0 0.75,0.078125 0.890625,0.453125 z m 0,0"
             transform="translate(177.42968,134.765)"
             id="path7675"
             inkscape:connector-curvature="0" />
        </g>
        <g
           style="fill:#0000ff;fill-opacity:1;stroke:#0000ff"
           id="g7677">
          <path
             style="fill:#0000ff;stroke:#0000ff;stroke-width:0"
             d="m 3.296875,2.390625 c 0,-0.03125 0,-0.046875 -0.171875,-0.21875 C 1.890625,0.921875 1.5625,-0.96875 1.5625,-2.5 c 0,-1.734375 0.375,-3.46875 1.609375,-4.703125 0.125,-0.125 0.125,-0.140625 0.125,-0.171875 0,-0.078125 -0.03125,-0.109375 -0.09375,-0.109375 -0.109375,0 -1,0.6875 -1.59375,1.953125 -0.5,1.09375 -0.625,2.203125 -0.625,3.03125 0,0.78125 0.109375,1.984375 0.65625,3.125 C 2.25,1.84375 3.09375,2.5 3.203125,2.5 c 0.0625,0 0.09375,-0.03125 0.09375,-0.109375 z m 0,0"
             transform="translate(182.1,134.765)"
             id="path7679"
             inkscape:connector-curvature="0" />
        </g>
        <g
           style="fill:#0000ff;fill-opacity:1;stroke:#0000ff"
           id="g7681">
          <path
             style="fill:#0000ff;stroke:#0000ff;stroke-width:0"
             d="m 4.53125,-4.984375 c 0,-0.65625 -0.171875,-2.046875 -1.1875,-2.046875 -1.390625,0 -2.921875,2.8125 -2.921875,5.09375 0,0.9375 0.28125,2.046875 1.1875,2.046875 1.40625,0 2.921875,-2.859375 2.921875,-5.09375 z M 1.46875,-3.625 C 1.640625,-4.25 1.84375,-5.046875 2.25,-5.765625 2.515625,-6.25 2.875,-6.8125 3.328125,-6.8125 c 0.484375,0 0.546875,0.640625 0.546875,1.203125 0,0.5 -0.078125,1 -0.3125,1.984375 z m 2,0.328125 C 3.359375,-2.84375 3.15625,-2 2.765625,-1.28125 c -0.34375,0.6875 -0.71875,1.171875 -1.15625,1.171875 -0.328125,0 -0.53125,-0.296875 -0.53125,-1.21875 0,-0.421875 0.0625,-1 0.3125,-1.96875 z m 0,0"
             transform="translate(185.974,134.765)"
             id="path7683"
             inkscape:connector-curvature="0" />
        </g>
        <g
           style="fill:#0000ff;fill-opacity:1;stroke:#0000ff"
           id="g7685">
          <path
             style="fill:#0000ff;stroke:#0000ff;stroke-width:0"
             d="m 2.875,-2.5 c 0,-0.765625 -0.109375,-1.96875 -0.65625,-3.109375 -0.59375,-1.21875 -1.453125,-1.875 -1.546875,-1.875 -0.0625,0 -0.109375,0.046875 -0.109375,0.109375 0,0.03125 0,0.046875 0.1875,0.234375 0.984375,0.984375 1.546875,2.5625 1.546875,4.640625 0,1.71875 -0.359375,3.46875 -1.59375,4.71875 C 0.5625,2.34375 0.5625,2.359375 0.5625,2.390625 0.5625,2.453125 0.609375,2.5 0.671875,2.5 0.765625,2.5 1.671875,1.8125 2.25,0.546875 2.765625,-0.546875 2.875,-1.65625 2.875,-2.5 Z m 0,0"
             transform="translate(190.928,134.765)"
             id="path7687"
             inkscape:connector-curvature="0" />
        </g>
      </g>
    </g>
    <g
       id="g7825"
       style="fill:#0000ff;stroke:#0000ff"
       ns1:jacobian_sqrt="2.500002"
       inkscapeversion="0.91"
       ns1:alignment="middle center"
       ns1:scale="7.08661444556"
       ns1:preamble="/home/thill/.config/inkscape/extensions/default_packages.tex"
       ns1:text="$w\\times sin(\\theta)$"
       ns1:pdfconverter="pdf2svg"
       ns1:texconverter="pdflatex"
       ns1:version="0.8.1"
       transform="matrix(2.500002,0,0,2.500002,-186.9224,140.84219)">
      <g
         style="fill:#0000ff;stroke:#0000ff"
         id="g7827">
        <g
           id="g7829"
           style="fill:#0000ff;fill-opacity:1;stroke:#0000ff">
          <path
             id="path7831"
             transform="translate(148.712,134.765)"
             d="M 4.609375,-3.375 C 4.65625,-3.59375 4.75,-3.96875 4.75,-4.03125 c 0,-0.171875 -0.140625,-0.265625 -0.28125,-0.265625 -0.125,0 -0.296875,0.078125 -0.375,0.28125 -0.03125,0.0625 -0.5,1.96875 -0.5625,2.234375 C 3.453125,-1.484375 3.4375,-1.3125 3.4375,-1.125 c 0,0.109375 0,0.125 0.015625,0.171875 -0.234375,0.53125 -0.53125,0.84375 -0.921875,0.84375 -0.796875,0 -0.796875,-0.734375 -0.796875,-0.90625 0,-0.3125 0.046875,-0.703125 0.515625,-1.9375 0.109375,-0.296875 0.171875,-0.4375 0.171875,-0.640625 0,-0.4375 -0.328125,-0.8125 -0.8125,-0.8125 -0.953125,0 -1.3125,1.453125 -1.3125,1.53125 0,0.109375 0.09375,0.109375 0.109375,0.109375 0.109375,0 0.109375,-0.03125 0.15625,-0.1875 C 0.84375,-3.875 1.21875,-4.1875 1.578125,-4.1875 c 0.09375,0 0.25,0.015625 0.25,0.328125 0,0.25 -0.109375,0.53125 -0.1875,0.703125 -0.4375,1.171875 -0.546875,1.625 -0.546875,2.015625 0,0.90625 0.65625,1.25 1.40625,1.25 0.171875,0 0.640625,0 1.03125,-0.703125 0.265625,0.640625 0.953125,0.703125 1.25,0.703125 0.75,0 1.1875,-0.625 1.453125,-1.21875 0.328125,-0.78125 0.65625,-2.125 0.65625,-2.59375 0,-0.546875 -0.265625,-0.703125 -0.4375,-0.703125 -0.25,0 -0.5,0.265625 -0.5,0.484375 0,0.125 0.0625,0.1875 0.140625,0.265625 0.109375,0.109375 0.359375,0.359375 0.359375,0.84375 0,0.34375 -0.28125,1.3125 -0.546875,1.828125 -0.25,0.53125 -0.609375,0.875 -1.09375,0.875 -0.46875,0 -0.734375,-0.296875 -0.734375,-0.875 0,-0.265625 0.0625,-0.578125 0.109375,-0.71875 z m 0,0"
             style="fill:#0000ff;stroke:#0000ff;stroke-width:0"
             inkscape:connector-curvature="0" />
        </g>
        <g
           id="g7833"
           style="fill:#0000ff;fill-opacity:1;stroke:#0000ff">
          <path
             id="path7835"
             transform="translate(158.327,134.765)"
             d="M 3.875,-2.765625 1.890625,-4.75 C 1.765625,-4.875 1.75,-4.890625 1.671875,-4.890625 1.5625,-4.890625 1.46875,-4.8125 1.46875,-4.6875 c 0,0.0625 0.015625,0.078125 0.125,0.1875 l 2,2 -2,2.015625 c -0.109375,0.109375 -0.125,0.125 -0.125,0.1875 0,0.125 0.09375,0.203125 0.203125,0.203125 0.078125,0 0.09375,-0.015625 0.21875,-0.140625 L 3.875,-2.21875 l 2.0625,2.0625 c 0.015625,0.015625 0.078125,0.0625 0.140625,0.0625 0.125,0 0.203125,-0.078125 0.203125,-0.203125 0,-0.015625 0,-0.046875 -0.03125,-0.109375 C 6.234375,-0.421875 4.65625,-1.984375 4.15625,-2.5 l 1.828125,-1.8125 c 0.046875,-0.0625 0.203125,-0.1875 0.25,-0.25 0,-0.015625 0.046875,-0.0625 0.046875,-0.125 0,-0.125 -0.078125,-0.203125 -0.203125,-0.203125 C 6,-4.890625 5.96875,-4.859375 5.859375,-4.75 Z m 0,0"
             style="fill:#0000ff;stroke:#0000ff;stroke-width:0"
             inkscape:connector-curvature="0" />
        </g>
        <g
           id="g7837"
           style="fill:#0000ff;fill-opacity:1;stroke:#0000ff">
          <path
             id="path7839"
             transform="translate(168.289,134.765)"
             d="M 3.890625,-3.734375 C 3.625,-3.71875 3.421875,-3.5 3.421875,-3.28125 c 0,0.140625 0.09375,0.296875 0.3125,0.296875 0.21875,0 0.453125,-0.171875 0.453125,-0.5625 C 4.1875,-4 3.765625,-4.40625 3,-4.40625 c -1.3125,0 -1.6875,1.015625 -1.6875,1.453125 0,0.78125 0.734375,0.921875 1.03125,0.984375 0.515625,0.109375 1.03125,0.21875 1.03125,0.765625 0,0.25 -0.21875,1.09375 -1.421875,1.09375 -0.140625,0 -0.90625,0 -1.140625,-0.53125 0.390625,0.046875 0.640625,-0.25 0.640625,-0.53125 0,-0.21875 -0.171875,-0.34375 -0.375,-0.34375 -0.265625,0 -0.5625,0.203125 -0.5625,0.65625 0,0.5625 0.578125,0.96875 1.421875,0.96875 1.625,0 2.015625,-1.203125 2.015625,-1.65625 0,-0.359375 -0.1875,-0.609375 -0.3125,-0.71875 -0.265625,-0.28125 -0.5625,-0.34375 -1,-0.421875 -0.359375,-0.078125 -0.75,-0.15625 -0.75,-0.609375 C 1.890625,-3.578125 2.125,-4.1875 3,-4.1875 c 0.25,0 0.75,0.078125 0.890625,0.453125 z m 0,0"
             style="fill:#0000ff;stroke:#0000ff;stroke-width:0"
             inkscape:connector-curvature="0" />
          <path
             id="path7841"
             transform="translate(172.95947,134.765)"
             d="m 2.828125,-6.234375 c 0,-0.203125 -0.140625,-0.359375 -0.359375,-0.359375 -0.28125,0 -0.546875,0.265625 -0.546875,0.53125 0,0.1875 0.140625,0.359375 0.375,0.359375 0.234375,0 0.53125,-0.234375 0.53125,-0.53125 z m -0.75,3.75 c 0.109375,-0.28125 0.109375,-0.3125 0.21875,-0.578125 0.078125,-0.203125 0.125,-0.34375 0.125,-0.53125 0,-0.4375 -0.3125,-0.8125 -0.8125,-0.8125 -0.9375,0 -1.3125,1.453125 -1.3125,1.53125 0,0.109375 0.09375,0.109375 0.109375,0.109375 0.109375,0 0.109375,-0.03125 0.15625,-0.1875 0.28125,-0.9375 0.671875,-1.234375 1.015625,-1.234375 0.078125,0 0.25,0 0.25,0.3125 0,0.21875 -0.078125,0.421875 -0.109375,0.53125 -0.078125,0.25 -0.53125,1.40625 -0.6875,1.84375 -0.109375,0.25 -0.234375,0.578125 -0.234375,0.796875 0,0.46875 0.34375,0.8125 0.8125,0.8125 0.9375,0 1.3125,-1.4375 1.3125,-1.53125 0,-0.109375 -0.09375,-0.109375 -0.125,-0.109375 -0.09375,0 -0.09375,0.03125 -0.140625,0.1875 -0.1875,0.625 -0.515625,1.234375 -1.015625,1.234375 -0.171875,0 -0.25,-0.09375 -0.25,-0.328125 0,-0.25 0.0625,-0.390625 0.296875,-1 z m 0,0"
             style="fill:#0000ff;stroke:#0000ff;stroke-width:0"
             inkscape:connector-curvature="0" />
          <path
             id="path7843"
             transform="translate(176.39158,134.765)"
             d="m 0.875,-0.59375 c -0.03125,0.15625 -0.09375,0.390625 -0.09375,0.4375 0,0.171875 0.140625,0.265625 0.296875,0.265625 0.125,0 0.296875,-0.078125 0.375,-0.28125 0,-0.015625 0.125,-0.484375 0.1875,-0.734375 l 0.21875,-0.890625 C 1.90625,-2.03125 1.96875,-2.25 2.03125,-2.46875 c 0.03125,-0.171875 0.109375,-0.46875 0.125,-0.5 0.140625,-0.3125 0.671875,-1.21875 1.625,-1.21875 0.453125,0 0.53125,0.375 0.53125,0.703125 0,0.609375 -0.484375,1.890625 -0.640625,2.3125 C 3.578125,-0.9375 3.5625,-0.8125 3.5625,-0.703125 c 0,0.46875 0.359375,0.8125 0.828125,0.8125 0.9375,0 1.296875,-1.453125 1.296875,-1.53125 0,-0.109375 -0.078125,-0.109375 -0.109375,-0.109375 -0.109375,0 -0.109375,0.03125 -0.15625,0.1875 -0.203125,0.671875 -0.53125,1.234375 -1.015625,1.234375 -0.171875,0 -0.234375,-0.09375 -0.234375,-0.328125 0,-0.25 0.078125,-0.484375 0.171875,-0.703125 0.1875,-0.53125 0.609375,-1.625 0.609375,-2.203125 0,-0.65625 -0.421875,-1.0625 -1.140625,-1.0625 -0.90625,0 -1.390625,0.640625 -1.5625,0.875 -0.046875,-0.5625 -0.453125,-0.875 -0.921875,-0.875 -0.453125,0 -0.640625,0.390625 -0.734375,0.5625 C 0.421875,-3.5 0.296875,-2.90625 0.296875,-2.875 c 0,0.109375 0.09375,0.109375 0.109375,0.109375 0.109375,0 0.109375,-0.015625 0.171875,-0.234375 0.171875,-0.703125 0.375,-1.1875 0.734375,-1.1875 0.1875,0 0.296875,0.125 0.296875,0.453125 0,0.21875 -0.03125,0.328125 -0.15625,0.84375 z m 0,0"
             style="fill:#0000ff;stroke:#0000ff;stroke-width:0"
             inkscape:connector-curvature="0" />
        </g>
        <g
           id="g7845"
           style="fill:#0000ff;fill-opacity:1;stroke:#0000ff">
          <path
             id="path7847"
             transform="translate(182.371,134.765)"
             d="m 3.296875,2.390625 c 0,-0.03125 0,-0.046875 -0.171875,-0.21875 C 1.890625,0.921875 1.5625,-0.96875 1.5625,-2.5 c 0,-1.734375 0.375,-3.46875 1.609375,-4.703125 0.125,-0.125 0.125,-0.140625 0.125,-0.171875 0,-0.078125 -0.03125,-0.109375 -0.09375,-0.109375 -0.109375,0 -1,0.6875 -1.59375,1.953125 -0.5,1.09375 -0.625,2.203125 -0.625,3.03125 0,0.78125 0.109375,1.984375 0.65625,3.125 C 2.25,1.84375 3.09375,2.5 3.203125,2.5 c 0.0625,0 0.09375,-0.03125 0.09375,-0.109375 z m 0,0"
             style="fill:#0000ff;stroke:#0000ff;stroke-width:0"
             inkscape:connector-curvature="0" />
        </g>
        <g
           id="g7849"
           style="fill:#0000ff;fill-opacity:1;stroke:#0000ff">
          <path
             id="path7851"
             transform="translate(186.246,134.765)"
             d="m 4.53125,-4.984375 c 0,-0.65625 -0.171875,-2.046875 -1.1875,-2.046875 -1.390625,0 -2.921875,2.8125 -2.921875,5.09375 0,0.9375 0.28125,2.046875 1.1875,2.046875 1.40625,0 2.921875,-2.859375 2.921875,-5.09375 z M 1.46875,-3.625 C 1.640625,-4.25 1.84375,-5.046875 2.25,-5.765625 2.515625,-6.25 2.875,-6.8125 3.328125,-6.8125 c 0.484375,0 0.546875,0.640625 0.546875,1.203125 0,0.5 -0.078125,1 -0.3125,1.984375 z m 2,0.328125 C 3.359375,-2.84375 3.15625,-2 2.765625,-1.28125 c -0.34375,0.6875 -0.71875,1.171875 -1.15625,1.171875 -0.328125,0 -0.53125,-0.296875 -0.53125,-1.21875 0,-0.421875 0.0625,-1 0.3125,-1.96875 z m 0,0"
             style="fill:#0000ff;stroke:#0000ff;stroke-width:0"
             inkscape:connector-curvature="0" />
        </g>
        <g
           id="g7853"
           style="fill:#0000ff;fill-opacity:1;stroke:#0000ff">
          <path
             id="path7855"
             transform="translate(191.199,134.765)"
             d="m 2.875,-2.5 c 0,-0.765625 -0.109375,-1.96875 -0.65625,-3.109375 -0.59375,-1.21875 -1.453125,-1.875 -1.546875,-1.875 -0.0625,0 -0.109375,0.046875 -0.109375,0.109375 0,0.03125 0,0.046875 0.1875,0.234375 0.984375,0.984375 1.546875,2.5625 1.546875,4.640625 0,1.71875 -0.359375,3.46875 -1.59375,4.71875 C 0.5625,2.34375 0.5625,2.359375 0.5625,2.390625 0.5625,2.453125 0.609375,2.5 0.671875,2.5 0.765625,2.5 1.671875,1.8125 2.25,0.546875 2.765625,-0.546875 2.875,-1.65625 2.875,-2.5 Z m 0,0"
             style="fill:#0000ff;stroke:#0000ff;stroke-width:0"
             inkscape:connector-curvature="0" />
        </g>
      </g>
    </g>
  </g>
</svg>
