<?xml version="1.0" encoding="UTF-8" standalone="no"?>
<!-- Created with Inkscape (http://www.inkscape.org/) -->

<svg
   xmlns:ns0="http://www.iki.fi/pav/software/textext/"
   xmlns:dc="http://purl.org/dc/elements/1.1/"
   xmlns:cc="http://creativecommons.org/ns#"
   xmlns:rdf="http://www.w3.org/1999/02/22-rdf-syntax-ns#"
   xmlns:svg="http://www.w3.org/2000/svg"
   xmlns="http://www.w3.org/2000/svg"
   xmlns:sodipodi="http://sodipodi.sourceforge.net/DTD/sodipodi-0.dtd"
   xmlns:inkscape="http://www.inkscape.org/namespaces/inkscape"
   sodipodi:docname="circular_frequency_fig2.svg"
   inkscape:version="0.92.3 (2405546, 2018-03-11)"
   id="svg8"
   version="1.1"
   viewBox="0 0 244.8703 341.58545"
   height="341.58545mm"
   width="244.8703mm"
   inkscape:export-filename="/home/thill/lectures/dmc_lectures/dynamics_review/dynamics_review_topic5/polar.png"
   inkscape:export-xdpi="96"
   inkscape:export-ydpi="96">
  <sodipodi:namedview
     showguides="false"
     inkscape:window-maximized="1"
     inkscape:window-y="27"
     inkscape:window-x="67"
     inkscape:window-height="1025"
     inkscape:window-width="1853"
     showgrid="false"
     inkscape:current-layer="layer1"
     inkscape:document-units="mm"
     inkscape:cy="454.47514"
     inkscape:cx="747.35967"
     inkscape:zoom="0.36774556"
     inkscape:pageshadow="2"
     inkscape:pageopacity="0.0"
     borderopacity="1.0"
     bordercolor="#666666"
     pagecolor="#ffffff"
     id="base"
     fit-margin-top="0"
     fit-margin-left="0"
     fit-margin-right="0"
     fit-margin-bottom="0">
    <inkscape:grid
       originy="46.848542"
       originx="35.060836"
       id="grid5219"
       type="xygrid" />
  </sodipodi:namedview>
  <defs
     id="defs2">
    <marker
       inkscape:stockid="Arrow2Mend"
       orient="auto"
       refY="0"
       refX="0"
       id="marker12894"
       style="overflow:visible"
       inkscape:isstock="true">
      <path
         id="path12892"
         style="fill:#800080;fill-opacity:1;fill-rule:evenodd;stroke:#800080;stroke-width:0.625;stroke-linejoin:round;stroke-opacity:1"
         d="M 8.7185878,4.0337352 -2.2072895,0.01601326 8.7185884,-4.0017078 c -1.7454984,2.3720609 -1.7354408,5.6174519 -6e-7,8.035443 z"
         transform="scale(-0.6)"
         inkscape:connector-curvature="0" />
    </marker>
    <marker
       inkscape:stockid="Arrow2Mend"
       orient="auto"
       refY="0"
       refX="0"
       id="marker12826"
       style="overflow:visible"
       inkscape:isstock="true">
      <path
         id="path12824"
         style="fill:#008000;fill-opacity:1;fill-rule:evenodd;stroke:#008000;stroke-width:0.625;stroke-linejoin:round;stroke-opacity:1"
         d="M 8.7185878,4.0337352 -2.2072895,0.01601326 8.7185884,-4.0017078 c -1.7454984,2.3720609 -1.7354408,5.6174519 -6e-7,8.035443 z"
         transform="scale(-0.6)"
         inkscape:connector-curvature="0" />
    </marker>
    <marker
       inkscape:isstock="true"
       style="overflow:visible"
       id="marker9598"
       refX="0"
       refY="0"
       orient="auto"
       inkscape:stockid="Arrow2Mstart">
      <path
         inkscape:connector-curvature="0"
         transform="scale(0.6)"
         d="M 8.7185878,4.0337352 -2.2072895,0.01601326 8.7185884,-4.0017078 c -1.7454984,2.3720609 -1.7354408,5.6174519 -6e-7,8.035443 z"
         style="fill:#000000;fill-opacity:1;fill-rule:evenodd;stroke:#000000;stroke-width:0.625;stroke-linejoin:round;stroke-opacity:1"
         id="path9596" />
    </marker>
    <marker
       inkscape:isstock="true"
       style="overflow:visible"
       id="Arrow2Lstart"
       refX="0"
       refY="0"
       orient="auto"
       inkscape:stockid="Arrow2Lstart">
      <path
         inkscape:connector-curvature="0"
         transform="matrix(1.1,0,0,1.1,1.1,0)"
         d="M 8.7185878,4.0337352 -2.2072895,0.01601326 8.7185884,-4.0017078 c -1.7454984,2.3720609 -1.7354408,5.6174519 -6e-7,8.035443 z"
         style="fill:#000000;fill-opacity:1;fill-rule:evenodd;stroke:#000000;stroke-width:0.625;stroke-linejoin:round;stroke-opacity:1"
         id="path4612" />
    </marker>
    <marker
       inkscape:isstock="true"
       style="overflow:visible"
       id="Arrow1Lstart"
       refX="0"
       refY="0"
       orient="auto"
       inkscape:stockid="Arrow1Lstart">
      <path
         inkscape:connector-curvature="0"
         transform="matrix(0.8,0,0,0.8,10,0)"
         style="fill:#000000;fill-opacity:1;fill-rule:evenodd;stroke:#000000;stroke-width:1.00000003pt;stroke-opacity:1"
         d="M 0,0 5,-5 -12.5,0 5,5 Z"
         id="path4594" />
    </marker>
    <marker
       inkscape:isstock="true"
       style="overflow:visible"
       id="Arrow2Mend"
       refX="0"
       refY="0"
       orient="auto"
       inkscape:stockid="Arrow2Mend"
       inkscape:collect="always">
      <path
         inkscape:connector-curvature="0"
         transform="scale(-0.6)"
         d="M 8.7185878,4.0337352 -2.2072895,0.01601326 8.7185884,-4.0017078 c -1.7454984,2.3720609 -1.7354408,5.6174519 -6e-7,8.035443 z"
         style="fill:#000000;fill-opacity:1;fill-rule:evenodd;stroke:#000000;stroke-width:0.625;stroke-linejoin:round;stroke-opacity:1"
         id="path4621" />
    </marker>
    <marker
       inkscape:isstock="true"
       style="overflow:visible"
       id="Arrow2Lend"
       refX="0"
       refY="0"
       orient="auto"
       inkscape:stockid="Arrow2Lend">
      <path
         inkscape:connector-curvature="0"
         transform="matrix(-1.1,0,0,-1.1,-1.1,0)"
         d="M 8.7185878,4.0337352 -2.2072895,0.01601326 8.7185884,-4.0017078 c -1.7454984,2.3720609 -1.7354408,5.6174519 -6e-7,8.035443 z"
         style="fill:#800080;fill-opacity:1;fill-rule:evenodd;stroke:#800080;stroke-width:0.625;stroke-linejoin:round;stroke-opacity:1"
         id="path4615" />
    </marker>
    <marker
       inkscape:isstock="true"
       style="overflow:visible"
       id="Arrow1Lend"
       refX="0"
       refY="0"
       orient="auto"
       inkscape:stockid="Arrow1Lend">
      <path
         inkscape:connector-curvature="0"
         transform="matrix(-0.8,0,0,-0.8,-10,0)"
         style="fill:#000000;fill-opacity:1;fill-rule:evenodd;stroke:#000000;stroke-width:1.00000003pt;stroke-opacity:1"
         d="M 0,0 5,-5 -12.5,0 5,5 Z"
         id="path4597" />
    </marker>
    <marker
       inkscape:isstock="true"
       style="overflow:visible"
       id="Arrow2Mstart"
       refX="0"
       refY="0"
       orient="auto"
       inkscape:stockid="Arrow2Mstart">
      <path
         inkscape:connector-curvature="0"
         transform="scale(0.6)"
         d="M 8.7185878,4.0337352 -2.2072895,0.01601326 8.7185884,-4.0017078 c -1.7454984,2.3720609 -1.7354408,5.6174519 -6e-7,8.035443 z"
         style="fill:#000000;fill-opacity:1;fill-rule:evenodd;stroke:#000000;stroke-width:0.625;stroke-linejoin:round;stroke-opacity:1"
         id="path4618" />
    </marker>
    <marker
       inkscape:isstock="true"
       style="overflow:visible"
       id="Arrow2Mend-3"
       refX="0"
       refY="0"
       orient="auto"
       inkscape:stockid="Arrow2Mend">
      <path
         transform="scale(-0.6)"
         d="M 8.7185878,4.0337352 -2.2072895,0.01601326 8.7185884,-4.0017078 c -1.7454984,2.3720609 -1.7354408,5.6174519 -6e-7,8.035443 z"
         style="fill:#000000;fill-opacity:1;fill-rule:evenodd;stroke:#000000;stroke-width:0.625;stroke-linejoin:round;stroke-opacity:1"
         id="path4621-6"
         inkscape:connector-curvature="0" />
    </marker>
    <marker
       inkscape:isstock="true"
       style="overflow:visible"
       id="marker9598-5"
       refX="0"
       refY="0"
       orient="auto"
       inkscape:stockid="Arrow2Mstart">
      <path
         transform="scale(0.6)"
         d="M 8.7185878,4.0337352 -2.2072895,0.01601326 8.7185884,-4.0017078 c -1.7454984,2.3720609 -1.7354408,5.6174519 -6e-7,8.035443 z"
         style="fill:#000000;fill-opacity:1;fill-rule:evenodd;stroke:#000000;stroke-width:0.625;stroke-linejoin:round;stroke-opacity:1"
         id="path9596-3"
         inkscape:connector-curvature="0" />
    </marker>
    <marker
       inkscape:isstock="true"
       style="overflow:visible"
       id="Arrow2Mend-5"
       refX="0"
       refY="0"
       orient="auto"
       inkscape:stockid="Arrow2Mend">
      <path
         transform="scale(-0.6)"
         d="M 8.7185878,4.0337352 -2.2072895,0.01601326 8.7185884,-4.0017078 c -1.7454984,2.3720609 -1.7354408,5.6174519 -6e-7,8.035443 z"
         style="fill:#000000;fill-opacity:1;fill-rule:evenodd;stroke:#000000;stroke-width:0.625;stroke-linejoin:round;stroke-opacity:1"
         id="path4621-62"
         inkscape:connector-curvature="0" />
    </marker>
    <marker
       inkscape:stockid="Arrow2Mend"
       orient="auto"
       refY="0"
       refX="0"
       id="marker12894-9"
       style="overflow:visible"
       inkscape:isstock="true">
      <path
         id="path12892-2"
         style="fill:#800080;fill-opacity:1;fill-rule:evenodd;stroke:#800080;stroke-width:0.625;stroke-linejoin:round;stroke-opacity:1"
         d="M 8.7185878,4.0337352 -2.2072895,0.01601326 8.7185884,-4.0017078 c -1.7454984,2.3720609 -1.7354408,5.6174519 -6e-7,8.035443 z"
         transform="scale(-0.6)"
         inkscape:connector-curvature="0" />
    </marker>
    <marker
       inkscape:isstock="true"
       style="overflow:visible"
       id="marker9598-3"
       refX="0"
       refY="0"
       orient="auto"
       inkscape:stockid="Arrow2Mstart">
      <path
         inkscape:connector-curvature="0"
         transform="scale(0.6)"
         d="M 8.7185878,4.0337352 -2.2072895,0.01601326 8.7185884,-4.0017078 c -1.7454984,2.3720609 -1.7354408,5.6174519 -6e-7,8.035443 z"
         style="fill:#000000;fill-opacity:1;fill-rule:evenodd;stroke:#000000;stroke-width:0.625;stroke-linejoin:round;stroke-opacity:1"
         id="path9596-6" />
    </marker>
    <marker
       inkscape:isstock="true"
       style="overflow:visible"
       id="Arrow2Mend-7"
       refX="0"
       refY="0"
       orient="auto"
       inkscape:stockid="Arrow2Mend"
       inkscape:collect="always">
      <path
         inkscape:connector-curvature="0"
         transform="scale(-0.6)"
         d="M 8.7185878,4.0337352 -2.2072895,0.01601326 8.7185884,-4.0017078 c -1.7454984,2.3720609 -1.7354408,5.6174519 -6e-7,8.035443 z"
         style="fill:#000000;fill-opacity:1;fill-rule:evenodd;stroke:#000000;stroke-width:0.625;stroke-linejoin:round;stroke-opacity:1"
         id="path4621-5" />
    </marker>
    <marker
       inkscape:isstock="true"
       style="overflow:visible"
       id="marker9598-3-5"
       refX="0"
       refY="0"
       orient="auto"
       inkscape:stockid="Arrow2Mstart">
      <path
         inkscape:connector-curvature="0"
         transform="scale(0.6)"
         d="M 8.7185878,4.0337352 -2.2072895,0.01601326 8.7185884,-4.0017078 c -1.7454984,2.3720609 -1.7354408,5.6174519 -6e-7,8.035443 z"
         style="fill:#000000;fill-opacity:1;fill-rule:evenodd;stroke:#000000;stroke-width:0.625;stroke-linejoin:round;stroke-opacity:1"
         id="path9596-6-6" />
    </marker>
    <marker
       inkscape:isstock="true"
       style="overflow:visible"
       id="Arrow2Mend-7-2"
       refX="0"
       refY="0"
       orient="auto"
       inkscape:stockid="Arrow2Mend"
       inkscape:collect="always">
      <path
         inkscape:connector-curvature="0"
         transform="scale(-0.6)"
         d="M 8.7185878,4.0337352 -2.2072895,0.01601326 8.7185884,-4.0017078 c -1.7454984,2.3720609 -1.7354408,5.6174519 -6e-7,8.035443 z"
         style="fill:#000000;fill-opacity:1;fill-rule:evenodd;stroke:#000000;stroke-width:0.625;stroke-linejoin:round;stroke-opacity:1"
         id="path4621-5-9" />
    </marker>
  </defs>
  <metadata
     id="metadata5">
    <rdf:RDF>
      <cc:Work
         rdf:about="">
        <dc:format>image/svg+xml</dc:format>
        <dc:type
           rdf:resource="http://purl.org/dc/dcmitype/StillImage" />
        <dc:title></dc:title>
      </cc:Work>
    </rdf:RDF>
  </metadata>
  <g
     transform="translate(35.060837,-2.2630557)"
     inkscape:label="Layer 1"
     inkscape:groupmode="layer"
     id="layer1">
    <g
       style="stroke:#b3b3b3"
       transform="matrix(2.0854757,0,0,2.0854757,-25.865813,230.21288)"
       inkscape:label="Grid_Polar:X4:Y2"
       id="g4522">
      <g
         style="stroke:#b3b3b3"
         inkscape:label="MajorXGridlines"
         id="g4478">
        <path
           inkscape:connector-curvature="0"
           d="M 26.458333,0 V 52.916667"
           style="fill:none;stroke:#b3b3b3;stroke-width:0.52916664"
           inkscape:label="MajorXDiv1"
           id="path4472" />
        <path
           inkscape:connector-curvature="0"
           d="M 52.916667,0 V 52.916667"
           style="fill:none;stroke:#b3b3b3;stroke-width:0.52916664"
           inkscape:label="MajorXDiv2"
           id="path4474" />
        <path
           inkscape:connector-curvature="0"
           d="M 79.375,0 V 52.916667"
           style="fill:none;stroke:#b3b3b3;stroke-width:0.52916664"
           inkscape:label="MajorXDiv3"
           id="path4476" />
      </g>
      <g
         style="stroke:#b3b3b3"
         inkscape:label="MajorYGridlines"
         id="g4482">
        <path
           inkscape:connector-curvature="0"
           d="M 0,26.458333 H 105.83333"
           style="fill:none;stroke:#b3b3b3;stroke-width:0.52916664"
           inkscape:label="MajorYDiv1"
           id="path4480" />
      </g>
      <g
         style="stroke:#b3b3b3"
         inkscape:label="MinorXGridlines"
         id="g4508">
        <path
           inkscape:connector-curvature="0"
           d="M 6.6145833,0 V 52.916667"
           style="fill:none;stroke:#b3b3b3;stroke-width:0.26458332"
           inkscape:label="MinorXDiv0:1"
           id="path4484" />
        <path
           inkscape:connector-curvature="0"
           d="M 13.229167,0 V 52.916667"
           style="fill:none;stroke:#b3b3b3;stroke-width:0.26458332"
           inkscape:label="MinorXDiv0:2"
           id="path4486" />
        <path
           inkscape:connector-curvature="0"
           d="M 19.84375,0 V 52.916667"
           style="fill:none;stroke:#b3b3b3;stroke-width:0.26458332"
           inkscape:label="MinorXDiv0:3"
           id="path4488" />
        <path
           inkscape:connector-curvature="0"
           d="M 33.072917,0 V 52.916667"
           style="fill:none;stroke:#b3b3b3;stroke-width:0.26458332"
           inkscape:label="MinorXDiv1:1"
           id="path4490" />
        <path
           inkscape:connector-curvature="0"
           d="M 39.6875,0 V 52.916667"
           style="fill:none;stroke:#b3b3b3;stroke-width:0.26458332"
           inkscape:label="MinorXDiv1:2"
           id="path4492" />
        <path
           inkscape:connector-curvature="0"
           d="M 46.302083,0 V 52.916667"
           style="fill:none;stroke:#b3b3b3;stroke-width:0.26458332"
           inkscape:label="MinorXDiv1:3"
           id="path4494" />
        <path
           inkscape:connector-curvature="0"
           d="M 59.53125,0 V 52.916667"
           style="fill:none;stroke:#b3b3b3;stroke-width:0.26458332"
           inkscape:label="MinorXDiv2:1"
           id="path4496" />
        <path
           inkscape:connector-curvature="0"
           d="M 66.145833,0 V 52.916667"
           style="fill:none;stroke:#b3b3b3;stroke-width:0.26458332"
           inkscape:label="MinorXDiv2:2"
           id="path4498" />
        <path
           inkscape:connector-curvature="0"
           d="M 72.760417,0 V 52.916667"
           style="fill:none;stroke:#b3b3b3;stroke-width:0.26458332"
           inkscape:label="MinorXDiv2:3"
           id="path4500" />
        <path
           inkscape:connector-curvature="0"
           d="M 85.989583,0 V 52.916667"
           style="fill:none;stroke:#b3b3b3;stroke-width:0.26458332"
           inkscape:label="MinorXDiv3:1"
           id="path4502" />
        <path
           inkscape:connector-curvature="0"
           d="M 92.604167,0 V 52.916667"
           style="fill:none;stroke:#b3b3b3;stroke-width:0.26458332"
           inkscape:label="MinorXDiv3:2"
           id="path4504" />
        <path
           inkscape:connector-curvature="0"
           d="M 99.21875,0 V 52.916667"
           style="fill:none;stroke:#b3b3b3;stroke-width:0.26458332"
           inkscape:label="MinorXDiv3:3"
           id="path4506" />
      </g>
      <g
         style="stroke:#b3b3b3"
         inkscape:label="MinorYGridlines"
         id="g4518">
        <path
           inkscape:connector-curvature="0"
           d="M 0,8.8194444 H 105.83333"
           style="fill:none;stroke:#b3b3b3;stroke-width:0.26458332"
           inkscape:label="MinorXYiv0:1"
           id="path4510" />
        <path
           inkscape:connector-curvature="0"
           d="M 0,17.638889 H 105.83333"
           style="fill:none;stroke:#b3b3b3;stroke-width:0.26458332"
           inkscape:label="MinorXYiv0:2"
           id="path4512" />
        <path
           inkscape:connector-curvature="0"
           d="M 0,35.277778 H 105.83333"
           style="fill:none;stroke:#b3b3b3;stroke-width:0.26458332"
           inkscape:label="MinorXYiv1:1"
           id="path4514" />
        <path
           inkscape:connector-curvature="0"
           d="M 0,44.097222 H 105.83333"
           style="fill:none;stroke:#b3b3b3;stroke-width:0.26458332"
           inkscape:label="MinorXYiv1:2"
           id="path4516" />
      </g>
      <rect
         height="52.916668"
         style="fill:none;stroke:#b3b3b3;stroke-width:0"
         width="105.83334"
         x="0"
         y="0"
         inkscape:label="Border"
         id="rect4520" />
    </g>
    <g
       style="fill:none;stroke:#b3b3b3"
       id="g12167"
       inkscape:label="Grid_Polar:X8:Y8"
       transform="translate(-21.209148,3.7749)">
      <g
         style="fill:none;stroke:#b3b3b3"
         id="g12147"
         inkscape:label="MajorXGridlines">
        <path
           id="path12133"
           inkscape:label="MajorXDiv1"
           style="fill:none;stroke:#b3b3b3;stroke-width:0.52916664"
           d="M 26.458333,0 V 211.66667"
           inkscape:connector-curvature="0" />
        <path
           id="path12135"
           inkscape:label="MajorXDiv2"
           style="fill:none;stroke:#b3b3b3;stroke-width:0.52916664"
           d="M 52.916667,0 V 211.66667"
           inkscape:connector-curvature="0" />
        <path
           id="path12137"
           inkscape:label="MajorXDiv3"
           style="fill:none;stroke:#b3b3b3;stroke-width:0.52916664"
           d="M 79.375,0 V 211.66667"
           inkscape:connector-curvature="0" />
        <path
           id="path12139"
           inkscape:label="MajorXDiv4"
           style="fill:none;stroke:#b3b3b3;stroke-width:0.52916664"
           d="M 105.83333,0 V 211.66667"
           inkscape:connector-curvature="0" />
        <path
           id="path12141"
           inkscape:label="MajorXDiv5"
           style="fill:none;stroke:#b3b3b3;stroke-width:0.52916664"
           d="M 132.29167,0 V 211.66667"
           inkscape:connector-curvature="0" />
        <path
           id="path12143"
           inkscape:label="MajorXDiv6"
           style="fill:none;stroke:#b3b3b3;stroke-width:0.52916664"
           d="M 158.75,0 V 211.66667"
           inkscape:connector-curvature="0" />
        <path
           id="path12145"
           inkscape:label="MajorXDiv7"
           style="fill:none;stroke:#b3b3b3;stroke-width:0.52916664"
           d="M 185.20833,0 V 211.66667"
           inkscape:connector-curvature="0" />
      </g>
      <g
         style="fill:none;stroke:#b3b3b3"
         id="g12163"
         inkscape:label="MajorYGridlines">
        <path
           id="path12149"
           inkscape:label="MajorYDiv1"
           style="fill:none;stroke:#b3b3b3;stroke-width:0.52916664"
           d="M 0,26.458333 H 211.66667"
           inkscape:connector-curvature="0" />
        <path
           id="path12151"
           inkscape:label="MajorYDiv2"
           style="fill:none;stroke:#b3b3b3;stroke-width:0.52916664"
           d="M 0,52.916667 H 211.66667"
           inkscape:connector-curvature="0" />
        <path
           id="path12153"
           inkscape:label="MajorYDiv3"
           style="fill:none;stroke:#b3b3b3;stroke-width:0.52916664"
           d="M 0,79.375 H 211.66667"
           inkscape:connector-curvature="0" />
        <path
           id="path12155"
           inkscape:label="MajorYDiv4"
           style="fill:none;stroke:#b3b3b3;stroke-width:0.52916664"
           d="M 0,105.83333 H 211.66667"
           inkscape:connector-curvature="0" />
        <path
           id="path12157"
           inkscape:label="MajorYDiv5"
           style="fill:none;stroke:#b3b3b3;stroke-width:0.52916664"
           d="M 0,132.29167 H 211.66667"
           inkscape:connector-curvature="0" />
        <path
           id="path12159"
           inkscape:label="MajorYDiv6"
           style="fill:none;stroke:#b3b3b3;stroke-width:0.52916664"
           d="M 0,158.75 H 211.66667"
           inkscape:connector-curvature="0" />
        <path
           id="path12161"
           inkscape:label="MajorYDiv7"
           style="fill:none;stroke:#b3b3b3;stroke-width:0.52916664"
           d="M 0,185.20833 H 211.66667"
           inkscape:connector-curvature="0" />
      </g>
      <rect
         id="rect12165"
         inkscape:label="Border"
         y="0"
         x="0"
         width="211.66667"
         style="fill:none;stroke:#b3b3b3;stroke-width:0"
         height="211.66667" />
    </g>
    <path
       sodipodi:nodetypes="cc"
       inkscape:connector-curvature="0"
       id="path46"
       d="M -21.209148,109.60823 H 190.45752"
       style="fill:none;stroke:#000000;stroke-width:1;stroke-linecap:butt;stroke-linejoin:miter;stroke-miterlimit:4;stroke-dasharray:none;stroke-opacity:1;marker-start:url(#marker9598);marker-end:url(#Arrow2Mend)" />
    <path
       sodipodi:nodetypes="cc"
       inkscape:connector-curvature="0"
       id="path46-9"
       d="M 84.624185,3.7748938 V 215.44156"
       style="fill:none;stroke:#000000;stroke-width:1;stroke-linecap:butt;stroke-linejoin:miter;stroke-miterlimit:4;stroke-dasharray:none;stroke-opacity:1;marker-start:url(#marker9598-5);marker-end:url(#Arrow2Mend-5)" />
    <g
       transform="matrix(1.763889,0,0,1.763889,-82.963791,-135.67078)"
       ns0:version="0.11.1"
       ns0:texconverter="pdflatex"
       ns0:pdfconverter="pdf2svg"
       ns0:text="$x$"
       ns0:preamble="/home/thill/.config/inkscape/extensions/textext/default_packages.tex"
       ns0:scale="5.0"
       ns0:alignment="middle center"
       inkscapeversion="0.92.3"
       ns0:jacobian_sqrt="1.763889"
       id="g12594">
      <g
         id="surface1">
        <g
           style="fill:#000000;fill-opacity:1"
           id="g12591">
          <path
             inkscape:connector-curvature="0"
             style="stroke:none;stroke-width:0"
             d="M 3.328125,-3.015625 C 3.390625,-3.265625 3.625,-4.1875 4.3125,-4.1875 c 0.046875,0 0.296875,0 0.5,0.125 C 4.53125,-4 4.34375,-3.765625 4.34375,-3.515625 c 0,0.15625 0.109375,0.34375 0.375,0.34375 0.21875,0 0.53125,-0.171875 0.53125,-0.578125 0,-0.515625 -0.578125,-0.65625 -0.921875,-0.65625 -0.578125,0 -0.921875,0.53125 -1.046875,0.75 -0.25,-0.65625 -0.78125,-0.75 -1.078125,-0.75 -1.03125,0 -1.609375,1.28125 -1.609375,1.53125 0,0.109375 0.109375,0.109375 0.125,0.109375 0.078125,0 0.109375,-0.03125 0.125,-0.109375 0.34375,-1.0625 1,-1.3125 1.34375,-1.3125 0.1875,0 0.53125,0.09375 0.53125,0.671875 0,0.3125 -0.171875,0.96875 -0.53125,2.375 -0.15625,0.609375 -0.515625,1.03125 -0.953125,1.03125 -0.0625,0 -0.28125,0 -0.5,-0.125 0.25,-0.0625 0.46875,-0.265625 0.46875,-0.546875 0,-0.265625 -0.21875,-0.34375 -0.359375,-0.34375 -0.3125,0 -0.546875,0.25 -0.546875,0.578125 0,0.453125 0.484375,0.65625 0.921875,0.65625 0.671875,0 1.03125,-0.703125 1.046875,-0.75 0.125,0.359375 0.484375,0.75 1.078125,0.75 1.03125,0 1.59375,-1.28125 1.59375,-1.53125 0,-0.109375 -0.078125,-0.109375 -0.109375,-0.109375 -0.09375,0 -0.109375,0.046875 -0.140625,0.109375 -0.328125,1.078125 -1,1.3125 -1.3125,1.3125 -0.390625,0 -0.546875,-0.3125 -0.546875,-0.65625 0,-0.21875 0.046875,-0.4375 0.15625,-0.875 z m 0,0"
             transform="translate(148.712,134.765)"
             id="path12589" />
        </g>
      </g>
    </g>
    <g
       id="g12734"
       ns0:jacobian_sqrt="1.763889"
       inkscapeversion="0.92.3"
       ns0:alignment="middle center"
       ns0:scale="5.0"
       ns0:preamble="/home/thill/.config/inkscape/extensions/textext/default_packages.tex"
       ns0:text="$y$"
       ns0:pdfconverter="pdf2svg"
       ns0:texconverter="pdflatex"
       ns0:version="0.11.1"
       transform="matrix(1.763889,0,0,1.763889,-171.37185,-224.14177)">
      <g
         id="g12732">
        <g
           id="g12730"
           style="fill:#000000;fill-opacity:1">
          <path
             inkscape:connector-curvature="0"
             id="path12728"
             transform="translate(148.712,134.765)"
             d="m 4.84375,-3.796875 c 0.046875,-0.140625 0.046875,-0.15625 0.046875,-0.234375 0,-0.171875 -0.140625,-0.265625 -0.296875,-0.265625 -0.09375,0 -0.25,0.0625 -0.34375,0.203125 -0.015625,0.0625 -0.109375,0.359375 -0.140625,0.546875 -0.078125,0.25 -0.140625,0.53125 -0.203125,0.796875 l -0.453125,1.796875 c -0.03125,0.140625 -0.46875,0.84375 -1.125,0.84375 -0.5,0 -0.609375,-0.4375 -0.609375,-0.8125 C 1.71875,-1.375 1.890625,-2 2.21875,-2.875 2.375,-3.28125 2.421875,-3.390625 2.421875,-3.59375 c 0,-0.4375 -0.3125,-0.8125 -0.8125,-0.8125 -0.953125,0 -1.3125,1.453125 -1.3125,1.53125 0,0.109375 0.09375,0.109375 0.109375,0.109375 0.109375,0 0.109375,-0.03125 0.15625,-0.1875 0.28125,-0.9375 0.671875,-1.234375 1.015625,-1.234375 0.078125,0 0.25,0 0.25,0.3125 0,0.25 -0.109375,0.515625 -0.171875,0.703125 -0.40625,1.0625 -0.578125,1.625 -0.578125,2.09375 0,0.890625 0.625,1.1875 1.21875,1.1875 0.390625,0 0.71875,-0.171875 1,-0.453125 -0.125,0.515625 -0.25,1.015625 -0.640625,1.546875 -0.265625,0.328125 -0.640625,0.625 -1.09375,0.625 -0.140625,0 -0.59375,-0.03125 -0.765625,-0.421875 0.15625,0 0.296875,0 0.421875,-0.125 C 1.328125,1.203125 1.421875,1.0625 1.421875,0.875 1.421875,0.5625 1.15625,0.53125 1.0625,0.53125 0.828125,0.53125 0.5,0.6875 0.5,1.171875 c 0,0.5 0.4375,0.875 1.0625,0.875 1.015625,0 2.046875,-0.90625 2.328125,-2.03125 z m 0,0"
             style="stroke:none;stroke-width:0" />
        </g>
      </g>
    </g>
    <circle
       style="fill:#800080;stroke-width:0.26499999;stroke-miterlimit:4;stroke-dasharray:none"
       id="path12799"
       cx="84.507187"
       cy="109.46808"
       r="2.1924453" />
    <path
       style="fill:#800080;stroke:#800080;stroke-width:1;stroke-linecap:butt;stroke-linejoin:miter;stroke-miterlimit:4;stroke-dasharray:none;stroke-opacity:1;marker-end:url(#marker12894)"
       d="M 84.637162,109.55809 130.83896,55.640033"
       id="path12816"
       inkscape:connector-curvature="0"
       sodipodi:nodetypes="cc" />
    <path
       style="fill:none;stroke:#800080;stroke-width:1;stroke-linecap:butt;stroke-linejoin:miter;stroke-miterlimit:4;stroke-dasharray:3, 3;stroke-dashoffset:0;stroke-opacity:1"
       d="m 84.637161,109.55809 h 48.290879 l 0.009,-54.172429"
       id="path13010"
       inkscape:connector-curvature="0"
       sodipodi:nodetypes="ccc" />
    <g
       style="fill:#008000;stroke:#008000"
       transform="matrix(1.1572155,-1.331224,1.331224,1.1572155,-253.5819,123.03042)"
       ns0:version="0.11.1"
       ns0:texconverter="pdflatex"
       ns0:pdfconverter="pdf2svg"
       ns0:text="$|p|$"
       ns0:preamble="/home/thill/.config/inkscape/extensions/textext/default_packages.tex"
       ns0:scale="5.0"
       ns0:alignment="middle center"
       inkscapeversion="0.92.3"
       ns0:jacobian_sqrt="1.763889"
       id="g14330">
      <g
         style="fill:#008000;stroke:#008000"
         id="g14328">
        <g
           style="fill:#008000;fill-opacity:1;stroke:#008000"
           id="g14318">
          <path
             inkscape:connector-curvature="0"
             style="fill:#008000;stroke:#008000;stroke-width:0"
             d="m 1.578125,-7.125 c 0,-0.171875 0,-0.359375 -0.1875,-0.359375 -0.203125,0 -0.203125,0.1875 -0.203125,0.359375 v 9.265625 c 0,0.171875 0,0.359375 0.203125,0.359375 0.1875,0 0.1875,-0.1875 0.1875,-0.359375 z m 0,0"
             transform="translate(148.712,134.765)"
             id="path14316" />
        </g>
        <g
           style="fill:#008000;fill-opacity:1;stroke:#008000"
           id="g14322">
          <path
             inkscape:connector-curvature="0"
             style="fill:#008000;stroke:#008000;stroke-width:0"
             d="M 0.453125,1.21875 C 0.375,1.5625 0.34375,1.625 -0.09375,1.625 c -0.109375,0 -0.21875,0 -0.21875,0.1875 0,0.078125 0.046875,0.125 0.125,0.125 0.265625,0 0.5625,-0.03125 0.828125,-0.03125 0.34375,0 0.671875,0.03125 1,0.03125 0.046875,0 0.171875,0 0.171875,-0.203125 C 1.8125,1.625 1.71875,1.625 1.578125,1.625 c -0.5,0 -0.5,-0.0625 -0.5,-0.15625 0,-0.125 0.421875,-1.75 0.484375,-2 0.125,0.296875 0.40625,0.640625 0.921875,0.640625 1.15625,0 2.40625,-1.453125 2.40625,-2.921875 0,-0.9375 -0.578125,-1.59375 -1.328125,-1.59375 -0.5,0 -0.984375,0.359375 -1.3125,0.75 -0.09375,-0.546875 -0.53125,-0.75 -0.890625,-0.75 -0.46875,0 -0.65625,0.390625 -0.734375,0.5625 C 0.4375,-3.5 0.3125,-2.90625 0.3125,-2.875 c 0,0.109375 0.09375,0.109375 0.109375,0.109375 0.109375,0 0.109375,-0.015625 0.171875,-0.234375 0.171875,-0.703125 0.375,-1.1875 0.734375,-1.1875 0.171875,0 0.3125,0.078125 0.3125,0.453125 0,0.234375 -0.03125,0.34375 -0.078125,0.515625 z m 1.75,-4.328125 C 2.265625,-3.375 2.546875,-3.65625 2.71875,-3.8125 c 0.359375,-0.296875 0.640625,-0.375 0.8125,-0.375 0.390625,0 0.640625,0.34375 0.640625,0.9375 0,0.59375 -0.328125,1.734375 -0.515625,2.109375 -0.34375,0.703125 -0.8125,1.03125 -1.1875,1.03125 C 1.8125,-0.109375 1.6875,-0.9375 1.6875,-1 c 0,-0.015625 0,-0.03125 0.03125,-0.15625 z m 0,0"
             transform="translate(151.48,134.765)"
             id="path14320" />
        </g>
        <g
           style="fill:#008000;fill-opacity:1;stroke:#008000"
           id="g14326">
          <path
             inkscape:connector-curvature="0"
             style="fill:#008000;stroke:#008000;stroke-width:0"
             d="m 1.578125,-7.125 c 0,-0.171875 0,-0.359375 -0.1875,-0.359375 -0.203125,0 -0.203125,0.1875 -0.203125,0.359375 v 9.265625 c 0,0.171875 0,0.359375 0.203125,0.359375 0.1875,0 0.1875,-0.1875 0.1875,-0.359375 z m 0,0"
             transform="translate(156.492,134.765)"
             id="path14324" />
        </g>
      </g>
    </g>
    <path
       sodipodi:nodetypes="cc"
       inkscape:connector-curvature="0"
       id="path14428"
       d="M 115.97058,108.61276 C 116.22499,97.403442 112.73515,94.026953 105.87873,88.900842"
       style="fill:none;stroke:#008000;stroke-width:1;stroke-linecap:butt;stroke-linejoin:miter;stroke-miterlimit:4;stroke-dasharray:none;stroke-dashoffset:0;stroke-opacity:1;marker-end:url(#marker12826)" />
    <g
       id="g16698"
       ns0:jacobian_sqrt="1.763889"
       inkscapeversion="0.92.3"
       ns0:alignment="middle center"
       ns0:scale="5.0"
       ns0:preamble="/home/thill/.config/inkscape/extensions/textext/default_packages.tex"
       ns0:text="$\\theta$"
       ns0:pdfconverter="pdf2svg"
       ns0:texconverter="pdflatex"
       ns0:version="0.11.1"
       transform="matrix(1.763889,0,0,1.763889,-144.68889,-138.32884)"
       style="fill:#008000;stroke:#008000">
      <g
         id="g16696"
         style="fill:#008000;stroke:#008000">
        <g
           id="g16694"
           style="fill:#008000;fill-opacity:1;stroke:#008000">
          <path
             id="path16692"
             transform="translate(148.712,134.765)"
             d="m 4.53125,-4.984375 c 0,-0.65625 -0.171875,-2.046875 -1.1875,-2.046875 -1.390625,0 -2.921875,2.8125 -2.921875,5.09375 0,0.9375 0.28125,2.046875 1.1875,2.046875 1.40625,0 2.921875,-2.859375 2.921875,-5.09375 z M 1.46875,-3.625 C 1.640625,-4.25 1.84375,-5.046875 2.25,-5.765625 2.515625,-6.25 2.875,-6.8125 3.328125,-6.8125 c 0.484375,0 0.546875,0.640625 0.546875,1.203125 0,0.5 -0.078125,1 -0.3125,1.984375 z m 2,0.328125 C 3.359375,-2.84375 3.15625,-2 2.765625,-1.28125 c -0.34375,0.6875 -0.71875,1.171875 -1.15625,1.171875 -0.328125,0 -0.53125,-0.296875 -0.53125,-1.21875 0,-0.421875 0.0625,-1 0.3125,-1.96875 z m 0,0"
             style="fill:#008000;stroke:#008000;stroke-width:0"
             inkscape:connector-curvature="0" />
        </g>
      </g>
    </g>
    <circle
       style="fill:#008000;stroke-width:0.26499999;stroke-miterlimit:4;stroke-dasharray:none"
       id="path12799-9"
       cx="132.85965"
       cy="53.300308"
       r="2.1924453" />
    <g
       transform="matrix(1.763889,0,0,1.763889,-119.09663,-187.5759)"
       ns0:version="0.11.1"
       ns0:texconverter="pdflatex"
       ns0:pdfconverter="pdf2svg"
       ns0:text="$\\vec{p}$"
       ns0:preamble="/home/thill/.config/inkscape/extensions/textext/default_packages.tex"
       ns0:scale="5.0"
       ns0:alignment="middle center"
       inkscapeversion="0.92.3"
       ns0:jacobian_sqrt="1.763889"
       style="fill:#800080;stroke:#800080"
       id="g991">
      <g
         id="g989"
         style="fill:#800080;stroke:#800080">
        <g
           style="fill:#800080;fill-opacity:1;stroke:#800080"
           id="g983">
          <path
             inkscape:connector-curvature="0"
             style="fill:#800080;stroke:#800080;stroke-width:0"
             d="m 5.359375,-5.9375 c -0.140625,0.140625 -0.46875,0.421875 -0.46875,0.59375 0,0.09375 0.09375,0.203125 0.1875,0.203125 0.09375,0 0.140625,-0.078125 0.203125,-0.140625 C 5.390625,-5.421875 5.625,-5.703125 6.0625,-5.921875 6.125,-5.96875 6.234375,-6.015625 6.234375,-6.125 6.234375,-6.234375 6.15625,-6.28125 6.09375,-6.328125 5.875,-6.484375 5.765625,-6.65625 5.6875,-6.890625 5.65625,-6.984375 5.625,-7.125 5.484375,-7.125 c -0.140625,0 -0.203125,0.140625 -0.203125,0.21875 0,0.046875 0.078125,0.359375 0.234375,0.578125 H 2.15625 c -0.15625,0 -0.34375,0 -0.34375,0.203125 0,0.1875 0.1875,0.1875 0.34375,0.1875 z m 0,0"
             transform="translate(148.792,134.765)"
             id="path981" />
        </g>
        <g
           style="fill:#800080;fill-opacity:1;stroke:#800080"
           id="g987">
          <path
             inkscape:connector-curvature="0"
             style="fill:#800080;stroke:#800080;stroke-width:0"
             d="M 0.453125,1.21875 C 0.375,1.5625 0.34375,1.625 -0.09375,1.625 c -0.109375,0 -0.21875,0 -0.21875,0.1875 0,0.078125 0.046875,0.125 0.125,0.125 0.265625,0 0.5625,-0.03125 0.828125,-0.03125 0.34375,0 0.671875,0.03125 1,0.03125 0.046875,0 0.171875,0 0.171875,-0.203125 C 1.8125,1.625 1.71875,1.625 1.578125,1.625 c -0.5,0 -0.5,-0.0625 -0.5,-0.15625 0,-0.125 0.421875,-1.75 0.484375,-2 0.125,0.296875 0.40625,0.640625 0.921875,0.640625 1.15625,0 2.40625,-1.453125 2.40625,-2.921875 0,-0.9375 -0.578125,-1.59375 -1.328125,-1.59375 -0.5,0 -0.984375,0.359375 -1.3125,0.75 -0.09375,-0.546875 -0.53125,-0.75 -0.890625,-0.75 -0.46875,0 -0.65625,0.390625 -0.734375,0.5625 C 0.4375,-3.5 0.3125,-2.90625 0.3125,-2.875 c 0,0.109375 0.09375,0.109375 0.109375,0.109375 0.109375,0 0.109375,-0.015625 0.171875,-0.234375 0.171875,-0.703125 0.375,-1.1875 0.734375,-1.1875 0.171875,0 0.3125,0.078125 0.3125,0.453125 0,0.234375 -0.03125,0.34375 -0.078125,0.515625 z m 1.75,-4.328125 C 2.265625,-3.375 2.546875,-3.65625 2.71875,-3.8125 c 0.359375,-0.296875 0.640625,-0.375 0.8125,-0.375 0.390625,0 0.640625,0.34375 0.640625,0.9375 0,0.59375 -0.328125,1.734375 -0.515625,2.109375 -0.34375,0.703125 -0.8125,1.03125 -1.1875,1.03125 C 1.8125,-0.109375 1.6875,-0.9375 1.6875,-1 c 0,-0.015625 0,-0.03125 0.03125,-0.15625 z m 0,0"
             transform="translate(148.7123,134.765)"
             id="path985" />
        </g>
      </g>
    </g>
    <circle
       style="fill:none;stroke:#0066ff;stroke-width:1;stroke-linejoin:round;stroke-miterlimit:4;stroke-dasharray:none;stroke-dashoffset:0"
       id="path902"
       cx="84.506195"
       cy="109.59685"
       r="74.340103" />
    <path
       sodipodi:nodetypes="cc"
       inkscape:connector-curvature="0"
       id="path46-3-1"
       d="M 84.49061,228.43942 V 342.33668"
       style="fill:none;stroke:#000000;stroke-width:1;stroke-linecap:butt;stroke-linejoin:miter;stroke-miterlimit:4;stroke-dasharray:none;stroke-opacity:1;marker-start:url(#marker9598-3-5);marker-end:url(#Arrow2Mend-7-2)" />
    <path
       sodipodi:nodetypes="cc"
       inkscape:connector-curvature="0"
       id="path46-3"
       d="M -33.548999,285.34545 H 203.2875"
       style="fill:#000000;stroke:#000000;stroke-width:1;stroke-linecap:butt;stroke-linejoin:miter;stroke-miterlimit:4;stroke-dasharray:none;stroke-opacity:1;marker-start:url(#marker9598-3);marker-end:url(#Arrow2Mend-7)" />
    <path
       sodipodi:nodetypes="cccccc"
       inkscape:connector-curvature="0"
       id="path2800"
       d="m 194.91987,285.48328 c 0,0 -11.53105,37.0279 -27.69975,36.5133 -20.87728,-0.0827 -33.37352,-73.72189 -55.03975,-73.5662 -22.019806,-0.29614 -33.439536,73.41127 -55.46121,73.7152 -23.851847,-0.13487 -34.323187,-73.73193 -55.1451189,-73.66253 -16.9983031,0.0155 -27.8923971,36.82036 -27.8923971,36.82036"
       style="fill:none;stroke:#0066ff;stroke-width:1;stroke-linecap:butt;stroke-linejoin:miter;stroke-miterlimit:4;stroke-dasharray:none;stroke-opacity:1" />
    <g
       id="g5473"
       ns0:jacobian_sqrt="1.763889"
       inkscapeversion="0.92.3"
       ns0:alignment="middle center"
       ns0:scale="5.0"
       ns0:preamble="/home/thill/.config/inkscape/extensions/textext/default_packages.tex"
       ns0:text="$t$"
       ns0:pdfconverter="pdf2svg"
       ns0:texconverter="pdflatex"
       ns0:version="0.11.1"
       transform="matrix(1.763889,0,0,1.763889,-58.062948,42.746072)">
      <g
         id="g5471">
        <g
           id="g5469"
           style="fill:#000000;fill-opacity:1">
          <path
             id="path5467"
             transform="translate(148.712,134.765)"
             d="m 2.046875,-3.984375 h 0.9375 c 0.203125,0 0.3125,0 0.3125,-0.203125 0,-0.109375 -0.109375,-0.109375 -0.28125,-0.109375 h -0.875 C 2.5,-5.71875 2.546875,-5.90625 2.546875,-5.96875 c 0,-0.171875 -0.125,-0.265625 -0.296875,-0.265625 -0.03125,0 -0.3125,0 -0.390625,0.359375 L 1.46875,-4.296875 h -0.9375 c -0.203125,0 -0.296875,0 -0.296875,0.1875 0,0.125 0.078125,0.125 0.28125,0.125 h 0.875 C 0.671875,-1.15625 0.625,-0.984375 0.625,-0.8125 0.625,-0.265625 1,0.109375 1.546875,0.109375 2.5625,0.109375 3.125,-1.34375 3.125,-1.421875 3.125,-1.53125 3.046875,-1.53125 3.015625,-1.53125 2.921875,-1.53125 2.90625,-1.5 2.859375,-1.390625 2.4375,-0.34375 1.90625,-0.109375 1.5625,-0.109375 c -0.203125,0 -0.3125,-0.125 -0.3125,-0.453125 0,-0.25 0.03125,-0.3125 0.0625,-0.484375 z m 0,0"
             style="stroke:none;stroke-width:0"
             inkscape:connector-curvature="0" />
        </g>
      </g>
    </g>
  </g>
  <g
     transform="matrix(0.352778,0,0,0.352778,66.317371,60.341719)"
     ns0:version="0.11.1"
     ns0:texconverter="pdflatex"
     ns0:pdfconverter="pdf2svg"
     ns0:text="$x$"
     ns0:preamble="/home/thill/.config/inkscape/extensions/textext/default_packages.tex"
     ns0:scale="1.0"
     ns0:alignment="middle center"
     inkscapeversion="0.92.3"
     ns0:jacobian_sqrt="0.352778"
     id="g12301">
    <g
       id="g12434">
      <g
         style="fill:#000000;fill-opacity:1"
         id="g12298" />
    </g>
  </g>
</svg>
