<?xml version="1.0" encoding="UTF-8" standalone="no"?>
<svg
   xmlns:dc="http://purl.org/dc/elements/1.1/"
   xmlns:cc="http://creativecommons.org/ns#"
   xmlns:rdf="http://www.w3.org/1999/02/22-rdf-syntax-ns#"
   xmlns:svg="http://www.w3.org/2000/svg"
   xmlns="http://www.w3.org/2000/svg"
   xmlns:sodipodi="http://sodipodi.sourceforge.net/DTD/sodipodi-0.dtd"
   xmlns:inkscape="http://www.inkscape.org/namespaces/inkscape"
   sodipodi:docname="moment_inertia_fig8.svg"
   inkscape:version="1.0 (1.0+r73+1)"
   id="svg15605"
   version="1.1"
   viewBox="0 0 78.516647 69.007118"
   height="69.007118mm"
   width="78.516647mm">
  <defs
     id="defs15599" />
  <sodipodi:namedview
     inkscape:window-maximized="1"
     inkscape:window-y="0"
     inkscape:window-x="0"
     inkscape:window-height="1022"
     inkscape:window-width="1680"
     fit-margin-bottom="0"
     fit-margin-right="0"
     fit-margin-left="0"
     fit-margin-top="0"
     showgrid="false"
     inkscape:document-rotation="0"
     inkscape:current-layer="layer1"
     inkscape:document-units="mm"
     inkscape:cy="137.23726"
     inkscape:cx="182.8819"
     inkscape:zoom="1.4"
     inkscape:pageshadow="2"
     inkscape:pageopacity="0.0"
     borderopacity="1.0"
     bordercolor="#666666"
     pagecolor="#ffffff"
     id="base" />
  <metadata
     id="metadata15602">
    <rdf:RDF>
      <cc:Work
         rdf:about="">
        <dc:format>image/svg+xml</dc:format>
        <dc:type
           rdf:resource="http://purl.org/dc/dcmitype/StillImage" />
        <dc:title></dc:title>
      </cc:Work>
    </rdf:RDF>
  </metadata>
  <g
     transform="translate(-61.049881,-70.423777)"
     sodipodi:insensitive="true"
     id="layer1"
     inkscape:groupmode="layer"
     inkscape:label="Layer 1">
    <path
       sodipodi:nodetypes="sssscssssscsssssssssss"
       id="path16170"
       d="m 76.117216,85.592355 c 3.955222,1.473087 13.949974,-3.458818 17.765826,-4.840099 8.762908,-3.172039 17.621828,-6.401795 26.731778,-8.433316 4.58893,-1.023332 10.42061,-2.460397 15.10927,-1.059183 1.63359,0.488202 3.07683,1.569776 3.45907,3.298238 1.58591,7.171523 -11.34151,13.68158 -16.35453,16.263276 -0.69962,0.360304 -1.42042,0.681193 -2.10312,1.07261 -1.26369,0.724511 -2.69147,1.817661 -2.51821,3.472529 0.2315,2.211094 5.52172,3.243514 6.9735,3.821136 2.67594,1.064674 5.81849,2.961464 7.72067,5.188694 4.72856,5.53659 -0.0716,16.4287 -2.43521,22.2028 -1.29933,3.17425 -3.03976,9.14093 -5.53452,11.62429 -2.02051,2.01128 -4.99253,0.54372 -6.80747,-0.96534 -4.33771,-3.60668 -8.49107,-8.14352 -11.4288,-13.00525 -2.95376,-4.88828 -4.56004,-10.68708 -9.104287,-14.4801 -8.136012,-6.79102 -17.607796,1.35094 -23.687783,6.98531 -2.080824,1.92831 -5.287484,6.07761 -8.578519,5.63114 -1.934893,-0.2625 -2.926292,-2.34582 -3.403735,-3.98202 -2.635782,-9.0328 3.477408,-12.57792 10.377238,-15.87447 2.276817,-1.0878 6.357777,-2.986012 6.973504,-5.778622 0.646569,-2.932495 -8.577119,-10.077805 -3.990696,-12.341716 1.002147,-0.494671 -0.09732,0.852478 0.836024,1.200093 z"
       style="fill:#ff2ad4;stroke:#000000;stroke-width:0.5;stroke-linecap:butt;stroke-linejoin:miter;stroke-miterlimit:4;stroke-dasharray:none;stroke-opacity:1" />
  </g>
</svg>
